HIERARCHY
ROOT Hips
{
	OFFSET -1.049083 105.443504 -1.111724
	CHANNELS 6 Xposition Yposition Zposition Xrotation Yrotation Zrotation
	JOINT Chest
	{
		OFFSET 0.071963 13.589531 1.213992
		CHANNELS 3 Xrotation Yrotation Zrotation
		JOINT Chest2
		{
			OFFSET -0.980020 21.287933 2.220275
			CHANNELS 3 Xrotation Yrotation Zrotation
			JOINT Chest3
			{
				OFFSET -0.543031 14.878296 -1.077647
				CHANNELS 3 Xrotation Yrotation Zrotation
				JOINT Neck
				{
					OFFSET 0.346558 17.228836 1.289606
					CHANNELS 3 Xrotation Yrotation Zrotation
					JOINT Head
					{
						OFFSET -0.276058 10.343903 1.659833
						CHANNELS 3 Xrotation Yrotation Zrotation
						End Site
						{
							OFFSET -0.271998 10.355316 1.587761
						}
					}
				}
				JOINT LeftCollar
				{
					OFFSET 4.591397 12.930206 3.678733
					CHANNELS 3 Xrotation Yrotation Zrotation
					JOINT LeftUpArm
					{
						OFFSET 14.109012 -5.698212 -8.772995
						CHANNELS 3 Xrotation Yrotation Zrotation
						JOINT LeftLowArm
						{
							OFFSET 4.478054 -33.461456 0.078380
							CHANNELS 3 Xrotation Yrotation Zrotation
							JOINT LeftHand
							{
								OFFSET -0.776733 -28.053696 10.645842
								CHANNELS 3 Xrotation Yrotation Zrotation
								End Site
								{
									OFFSET -0.169756 -6.131302 2.326709
								}
							}
						}
					}
				}
				JOINT RightCollar
				{
					OFFSET -3.815987 13.071991 4.045995
					CHANNELS 3 Xrotation Yrotation Zrotation
					JOINT RightUpArm
					{
						OFFSET -14.588136 -5.737213 -7.922565
						CHANNELS 3 Xrotation Yrotation Zrotation
						JOINT RightLowArm
						{
							OFFSET -5.786297 -33.256104 -0.534107
							CHANNELS 3 Xrotation Yrotation Zrotation
							JOINT RightHand
							{
								OFFSET 2.692032 -27.787186 11.026346
								CHANNELS 3 Xrotation Yrotation Zrotation
								End Site
								{
									OFFSET 0.588360 -6.073166 2.409916
								}
							}
						}
					}
				}
			}
		}
	}
	JOINT LeftUpLeg
	{
		OFFSET 10.017344 -0.076225 0.257140
		CHANNELS 3 Xrotation Yrotation Zrotation
		JOINT LeftLowLeg
		{
			OFFSET 4.171787 -47.055931 -3.510537
			CHANNELS 3 Xrotation Yrotation Zrotation
			JOINT LeftFoot
			{
				OFFSET 0.994609 -42.886662 -12.661440
				CHANNELS 3 Xrotation Yrotation Zrotation
				JOINT LeftToe
				{
					OFFSET 0.068698 -16.158127 17.276268
					CHANNELS 3 Xrotation Yrotation Zrotation
					End Site
					{
						OFFSET 0.994385 -1.542774 23.583679
					}
				}
			}
		}
	}
	JOINT RightUpLeg
	{
		OFFSET -10.017350 0.076027 -0.257158
		CHANNELS 3 Xrotation Yrotation Zrotation
		JOINT RightLowLeg
		{
			OFFSET -0.714233 -47.339733 -1.565689
			CHANNELS 3 Xrotation Yrotation Zrotation
			JOINT RightFoot
			{
				OFFSET 1.944069 -42.245224 -14.565074
				CHANNELS 3 Xrotation Yrotation Zrotation
				JOINT RightToe
				{
					OFFSET -2.398308 -17.812109 15.379648
					CHANNELS 3 Xrotation Yrotation Zrotation
					End Site
					{
						OFFSET -5.591452 -3.978339 22.637680
					}
				}
			}
		}
	}
}
MOTION
Frames: 12
Frame Time: 0.033333
-1.049083 105.443504 -1.111724 0.000000 -0.000000 0.000000 -0.000000 -0.000000 0.000000 -0.000000 0.000000 0.000000 -0.000002 0.000000 -0.000000 -0.000000 0.000000 -0.000000 -0.000000 0.000001 -0.000000 0.000000 -0.000000 -0.000001 -0.000001 -0.000002 -0.000001 0.000002 0.000001 0.000001 0.000002 0.000002 0.000000 -0.000000 0.000000 0.000002 -0.000000 -0.000000 0.000002 0.000000 0.000001 -0.000000 0.000001 0.000001 0.000001 0.000000 -0.000000 -0.000000 0.000000 0.000000 -0.000000 0.000000 -0.000000 0.000000 -0.000000 -0.000001 -0.000000 0.000000 -0.000000 -0.000000 -0.000000 0.000001 -0.000000 -0.000000 0.000001 -0.000001 -0.000000 0.000000 -0.000002 
-1.048872 105.442429 -1.104666 -0.148779 -0.082888 -0.004495 0.264347 0.027793 -0.080316 -0.129766 0.002502 -0.007411 0.077703 0.238707 0.094263 -0.253139 -0.085769 0.064176 -0.000001 0.000000 -0.000000 -0.145313 -0.182187 -0.201486 0.214758 0.404471 0.162247 -0.358623 0.367496 -0.253460 0.000003 -0.000002 0.000000 -0.156146 -0.042647 0.281506 0.161746 -0.427877 -0.262701 -0.289963 -0.286706 0.226881 -0.000001 0.000001 -0.000000 0.116329 -0.021520 0.017500 0.204417 -0.041451 -0.061388 -0.595694 0.019238 0.069696 -0.000001 0.000000 -0.000000 -0.155568 -0.018110 0.030243 0.639666 0.178610 -0.060700 -0.806070 0.415396 0.083048 0.000001 0.000001 -0.000001 
-1.049674 105.444649 -1.098091 -0.076105 0.076173 -0.014329 0.242476 0.047807 -0.128329 -0.669008 -0.113178 0.137769 0.567786 0.245803 -0.007859 -0.194617 -0.195330 0.073743 0.000000 0.000001 0.000000 -0.336715 0.077977 -0.466610 0.226307 0.676970 0.466938 -0.836421 0.687984 -0.626624 0.000001 -0.000002 0.000000 -0.315762 -0.213224 0.504072 0.182073 -0.764110 -0.584316 -0.376330 -0.567992 0.668094 0.000001 -0.000001 0.000000 -0.169945 -0.050539 0.096529 0.426253 -0.014565 -0.156948 -1.039546 -0.104685 0.049263 -0.000001 -0.000000 -0.000000 -0.191894 -0.035888 0.042598 0.556993 0.198447 -0.037055 -1.290661 0.490153 0.058832 -0.000000 0.000000 -0.000001 
-1.043344 105.443756 -1.095323 -0.433678 0.305304 -0.013434 1.147452 0.009603 -0.147270 -0.868293 -0.099614 0.169375 0.383621 0.442009 0.033036 -0.243211 -0.256952 0.198544 0.000001 0.000001 -0.000000 -0.000336 -0.547292 -0.490750 -0.112819 0.102038 0.307182 -0.923406 0.477077 0.045085 0.000001 0.000004 -0.000002 -0.186122 -0.782685 0.521411 0.191480 -0.324749 -0.652445 -0.890765 -0.278721 0.491131 0.000001 -0.000003 0.000001 0.247920 -0.048037 0.137937 0.614079 -0.066052 -0.198086 -0.953869 -0.411929 -0.089423 -0.000000 -0.000000 -0.000001 -0.090787 -0.004051 0.102280 1.104488 0.263137 -0.142313 -1.160145 0.371104 -0.014365 -0.000001 0.000002 -0.000001 
-1.034888 105.438850 -1.089255 -0.142163 0.181062 -0.010199 0.865777 0.018646 -0.174896 -0.464400 -0.046006 0.101775 0.041189 0.469860 0.134079 -0.128104 -0.193961 0.162602 0.000001 0.000000 -0.000000 0.050990 -0.460378 -0.476131 -0.084666 0.045029 0.256494 -1.223898 0.395263 0.104701 0.000000 0.000003 -0.000001 -0.016382 0.075279 0.420502 0.245341 -0.247365 -0.427686 -1.381701 -0.249337 0.050673 0.000001 0.000001 0.000001 0.107381 -0.069945 0.133025 0.696429 -0.067554 -0.260315 -0.900332 -0.231563 0.036150 0.000000 -0.000000 -0.000001 -0.367413 0.034055 0.101365 1.278926 0.282378 -0.220310 -1.071032 0.408445 -0.004947 0.000002 0.000001 -0.000001 
-1.026258 105.434891 -1.083247 -0.034517 0.100774 -0.008666 0.965631 0.010686 -0.166424 -0.743366 -0.026584 0.072209 0.239517 0.533822 0.176126 -0.441222 -0.146317 0.125344 0.000001 0.000000 -0.000000 0.142051 -0.761297 -0.670316 -0.232762 -0.195109 0.310374 -1.500784 0.312145 0.543774 -0.000000 0.000004 -0.000000 0.021874 0.114136 0.542884 0.188037 -0.029689 -0.529575 -1.107798 -0.189078 -0.064009 0.000001 -0.000002 0.000003 0.251194 -0.056813 0.086329 0.355527 0.002032 -0.246274 -0.925965 -0.223872 0.108723 -0.000000 -0.000001 0.000001 -0.622445 0.043969 0.104408 1.518672 0.205753 -0.286055 -1.199951 0.703489 -0.020815 -0.000001 0.000001 -0.000001 
-1.012658 105.433456 -1.074795 0.004523 0.025469 0.005121 0.893233 0.013844 -0.172949 -1.231594 -0.081731 0.157290 0.617258 0.554879 0.080523 -0.093489 -0.198592 0.121757 0.000001 0.000000 -0.000000 0.103594 -0.156690 -0.409720 -0.110456 -0.098672 0.216349 -1.299177 0.163665 0.094811 0.000002 0.000004 0.000001 -0.024148 -0.234395 0.224052 0.165949 -0.010435 -0.216713 -0.695903 -0.154293 0.097819 0.000001 -0.000002 0.000003 0.314395 -0.002930 0.039901 0.064338 0.024439 -0.226796 -0.754749 -0.257671 0.071251 -0.000001 -0.000001 0.000001 -0.489618 0.011232 0.002747 1.219579 0.102805 -0.269319 -0.752517 0.863196 0.031807 -0.000000 0.000001 -0.000001 
-0.997112 105.431152 -1.064755 0.013871 0.197326 -0.007222 0.760306 0.016553 -0.143499 -1.167945 -0.102993 0.183166 0.537212 0.084561 0.027846 -0.000995 -0.166053 0.006213 -0.000000 0.000000 -0.000000 0.078305 0.227660 -0.139326 -0.143395 -0.007051 -0.042696 -1.057630 0.129180 0.046301 -0.000000 0.000002 0.000001 0.037393 0.058391 -0.053508 -0.048845 0.044787 0.050267 -0.471285 -0.114223 0.082421 0.000001 0.000001 0.000002 0.708196 0.090899 0.074908 -0.399913 0.109666 -0.226374 -0.425380 -0.406405 -0.052493 -0.000000 -0.000000 -0.000000 -0.280194 -0.051414 -0.081613 0.739906 -0.057979 -0.170754 -0.107515 0.476919 -0.094090 0.000001 0.000001 -0.000001 
-0.978576 105.434761 -1.060657 0.560495 0.224915 -0.034029 -0.047906 0.032591 -0.104051 -1.139722 -0.106273 0.188825 0.952025 0.108412 0.046288 -0.541354 -0.197728 0.112986 0.000000 0.000000 -0.000000 0.050702 0.316317 0.002681 -0.043885 0.136338 -0.097251 -0.951426 0.207159 -0.365300 0.000003 -0.000005 0.000002 0.023003 0.146635 -0.021846 -0.330936 0.227883 -0.007250 -0.496830 -0.287275 0.015985 0.000000 0.000001 0.000001 0.248605 0.047922 0.091435 -0.863345 0.075159 -0.268598 0.168462 -0.067071 0.011738 -0.000001 -0.000001 0.000001 -0.706585 -0.004065 -0.087969 0.313718 -0.056546 -0.142234 0.379968 0.467711 -0.003044 0.000002 0.000001 -0.000001 
-0.958890 105.430466 -1.046572 0.634752 0.208364 -0.038229 -0.014288 0.021390 -0.139442 -0.919147 -0.095810 0.191714 0.551990 0.337416 0.112180 -0.397439 -0.234762 0.205104 0.000000 0.000001 0.000000 0.159817 -0.123793 0.128017 0.047240 0.178202 -0.198487 -1.477095 0.153677 -0.392572 0.000000 0.000002 -0.000001 -0.032743 -0.313544 -0.050051 0.066654 -0.012804 -0.091674 -0.789522 -0.271487 0.341013 0.000003 -0.000001 -0.000001 0.370565 0.012794 0.095909 -1.130356 0.082173 -0.331079 0.057086 0.027997 0.086367 -0.000000 -0.000000 0.000001 -0.536979 0.002394 -0.064956 0.055758 -0.073372 -0.259415 0.588135 0.353312 0.007943 0.000001 0.000000 -0.000001 
-0.931729 105.428200 -1.036385 0.391832 0.285488 -0.114162 0.367366 0.007160 -0.071884 -1.282834 -0.077975 0.152942 0.901818 0.345350 0.223387 -0.337048 -0.408194 0.353346 -0.000000 0.000001 0.000000 0.072033 0.146139 -0.039587 -0.161020 0.030577 -0.069009 -1.853975 0.054283 -0.423757 0.000001 -0.000006 -0.000000 -0.051453 -0.354701 0.066905 -0.011779 0.016299 -0.221069 -1.044176 -0.169784 0.218529 0.000001 0.000002 0.000002 0.335014 0.026465 0.158011 -0.743833 0.124240 -0.367282 -0.150325 0.053532 0.147233 -0.000001 -0.000000 0.000000 -0.736766 -0.009501 -0.041615 0.656501 -0.041416 -0.233827 0.327069 0.452659 -0.001479 0.000001 0.000001 -0.000002 
-0.905998 105.425072 -1.023366 0.435353 0.446148 -0.052345 0.493880 -0.002759 -0.127579 -1.840901 -0.052124 0.123832 1.207767 0.380987 0.286978 -0.223367 -0.511095 0.523559 0.000001 0.000000 -0.000000 0.198495 -0.229842 -0.060553 -0.257478 -0.216286 -0.113857 -1.780504 -0.020745 -0.149909 0.000001 0.000004 0.000001 -0.004015 -0.542824 0.111264 0.007477 0.176003 -0.228658 -1.004130 -0.068094 0.065888 0.000005 -0.000002 0.000002 0.335364 -0.006866 0.059373 -0.793158 0.050939 -0.361503 -0.080935 0.082018 0.139122 -0.000000 -0.000000 0.000000 -0.607538 0.030185 -0.133870 0.526522 0.011420 -0.171105 0.236793 0.334022 -0.008788 0.000000 0.000001 -0.000000 
